# xmcd
#
# Track frame offsets: 
#        150
#        19125
#        38604
#        57107
#        76750
#        97971
#        114617
#        135448
#        155438
#        175812
#        195422
#        213289
#        231547
#        251761
#        269159
#
# Disc length: 3778 seconds
#
# Revision: 0
# Processed by: cddbd v1.5.2PL0 Copyright (c) Steve Scherf et al.
# Submitted via: ExactAudioCopyFreeDBPlugin 1.0
#
DISCID=c50ec00f
DTITLE=李志洲 - 网络3剑客
DYEAR=1900
DGENRE=
TTITLE0=哥唱的是寂寞
TTITLE1=别让爱你的人心碎
TTITLE2=负心的女人不要留
TTITLE3=放手让你走
TTITLE4=我把爱情看得过于简单
TTITLE5=如果爱你是一个错
TTITLE6=有一种微笑叫坚强
TTITLE7=给我一个不哭的理由
TTITLE8=等爱的女人
TTITLE9=我的爱该怎么给
TTITLE10=丢了心的人
TTITLE11=Baby我爱你
TTITLE12=真的放手
TTITLE13=默默地为你祝福
TTITLE14=我们在一起
EXTD=
EXTT0=
EXTT1=
EXTT2=
EXTT3=
EXTT4=
EXTT5=
EXTT6=
EXTT7=
EXTT8=
EXTT9=
EXTT10=
EXTT11=
EXTT12=
EXTT13=
EXTT14=
PLAYORDER=
